<?xml version="1.0" encoding="UTF-8"?>
<svg version="1.1" xmlns="http://www.w3.org/2000/svg" width="980" height="980">
<path d="M0 0 C3.06519435 1.36861422 5.17051638 2.92137822 7.53757858 5.29148293 C8.22480491 5.97472716 8.91203125 6.65797139 9.62008262 7.36192 C10.36716617 8.11482923 11.11424972 8.86773847 11.88397217 9.64346313 C13.08353778 10.84046547 13.08353778 10.84046547 14.30733705 12.06164968 C16.99450215 14.74551203 19.67444147 17.43647612 22.35449219 20.12744141 C24.27525456 22.04988052 26.19752444 23.97080968 28.11973572 25.89179993 C32.26180921 30.03282445 36.40020354 34.17749663 40.53612518 38.32466507 C46.5159854 44.32077571 52.50135716 50.31135958 58.48809078 56.30060665 C68.20089217 66.01778585 77.90921833 75.73942349 87.61474609 85.46386719 C97.0430674 94.91054503 106.47348588 104.35512113 115.90673828 113.796875 C116.48815152 114.37881369 117.06956477 114.96075238 117.6685966 115.56032558 C120.58537354 118.47971259 123.50219182 121.39905829 126.41903067 124.31838346 C150.61910008 148.53918808 174.81191318 172.76722909 199 197 C202.81088892 195.22471403 205.4485704 192.82675134 208.37835693 189.8621521 C208.90855289 189.333665 209.43874884 188.80517789 209.98501134 188.26067603 C211.76009449 186.48888669 213.5279356 184.71004456 215.29589844 182.93115234 C216.56697865 181.65950799 217.83849941 180.38830386 219.11042786 179.11750793 C222.5629209 175.66558931 226.00920767 172.20753374 229.45442867 168.7483592 C233.05566619 165.13462922 236.6625586 161.52655258 240.26885986 157.9178772 C247.09739816 151.08311978 253.92082169 144.24327955 260.74243093 137.40160716 C268.50868662 129.61300594 276.28061406 121.83007497 284.05302763 114.04761958 C300.04167925 98.03805616 316.02318038 82.02137062 332 66 C335.88179886 69.27800043 339.69382174 72.56821172 343.28295898 76.16943359 C344.04321884 76.92976898 344.8034787 77.69010437 345.58677673 78.47348022 C346.38185135 79.27371613 347.17692596 80.07395203 347.99609375 80.8984375 C349.24641136 82.15087753 349.24641136 82.15087753 350.52198792 83.42861938 C353.16286524 86.07505848 355.80022896 88.72496759 358.4375 91.375 C360.23609649 93.17861643 362.03492227 94.98200425 363.83398438 96.78515625 C368.22531248 101.18746261 372.61376729 105.59261714 377 110 C372.78809204 115.02638235 368.39462433 119.74639358 363.74868774 124.37156677 C362.68744141 125.43409474 362.68744141 125.43409474 361.60475576 126.51808792 C359.24879801 128.87568429 356.88929972 131.229704 354.52978516 133.58374023 C352.83412554 135.2791176 351.13868644 136.97471554 349.44345093 138.67051697 C345.32727537 142.78694933 341.20881511 146.90108528 337.08932741 151.01420283 C332.29326553 155.80309727 327.5000485 160.59483492 322.70699851 165.38674355 C314.16030074 173.93125627 305.61137526 182.4735365 297.06103516 191.0144043 C288.75842682 199.30782436 280.45687632 207.60230096 272.15673828 215.89819336 C271.64455138 216.41011753 271.13236448 216.92204171 270.60465677 217.44947874 C268.03500309 220.01782732 265.46537011 222.5861966 262.89574742 225.15457618 C241.60037274 246.43959527 220.3013396 267.7209503 199 289 C195.5927238 287.52639095 193.37482461 285.62365011 190.75963974 283.0057354 C189.49367104 281.74573984 189.49367104 281.74573984 188.20212722 280.46028984 C187.27995099 279.53228793 186.35777477 278.60428602 185.40765381 277.64816284 C184.41467627 276.65605732 183.42125939 275.66439135 182.42744088 274.67312825 C179.6955874 271.945753 176.97001966 269.21217029 174.24541998 266.47755122 C171.30701759 263.53052352 168.36284964 260.5892659 165.41937256 257.64730835 C160.31965847 252.5486437 155.22362324 247.44632576 150.13005829 242.3415184 C142.76558604 234.96080203 135.39560681 227.58560503 128.02426556 220.21174969 C116.06532196 208.24842728 104.11085286 196.28064402 92.15917969 184.31005859 C80.54823984 172.68076476 68.93520428 161.05357034 57.31933594 149.42919922 C56.60350789 148.71284573 55.88767985 147.99649224 55.15016004 147.25843106 C51.55909988 143.66476085 47.96799839 140.07113194 44.37687635 136.47752357 C14.57817411 106.65808302 -15.21327449 76.83140383 -45 47 C-43.37026273 43.55220166 -41.54292699 41.2999859 -38.82568359 38.59863281 C-37.96494232 37.7380426 -37.10420105 36.87745239 -36.21737671 35.99078369 C-35.28712677 35.07085632 -34.35687683 34.15092896 -33.3984375 33.203125 C-32.43678914 32.24520903 -31.47558306 31.28684886 -30.51480103 30.32806396 C-27.99076718 27.81164875 -25.46078409 25.30129893 -22.92950439 22.79217529 C-20.3452081 20.22837559 -17.76659801 17.65887082 -15.1875 15.08984375 C-10.13054303 10.05430543 -5.06727744 5.0251544 0 0 Z " fill="#211A14" transform="translate(324,285)"/>
<path d="M0 0 C22.92731546 11.46365773 48.63553723 33.18011632 59 57 C69.38938266 88.22122904 64.56262147 126.22086779 62.96146739 158.50014937 C62.33615975 171.33816692 62.04174357 184.17816634 61.7677983 197.02771747 C61.19908173 223.37265335 60.19475985 249.67551368 59 276 C39.53 276 20.06 276 0 276 C0 184.92 0 93.84 0 0 Z " fill="#241C17" transform="translate(343,419)"/>
<path d="M0 0 C0.66 0 1.32 0 2 0 C2 91.08 2 182.16 2 276 C-17.14 276 -36.28 276 -56 276 C-56.06765662 247.36737246 -56.12294658 218.7348094 -56.15543652 190.10212231 C-56.17092148 176.8081967 -56.19204206 163.51434918 -56.22631836 150.22045898 C-56.25617088 138.63681085 -56.27556314 127.05320115 -56.28226548 115.46951562 C-56.28618478 109.33305975 -56.29542941 103.19671389 -56.31719017 97.0602932 C-56.33748982 91.28936785 -56.34384704 85.51859827 -56.33932304 79.74764061 C-56.34015117 77.62515416 -56.34615545 75.50266273 -56.35761642 73.38020706 C-56.37245846 70.49088221 -56.36898399 67.60215184 -56.36076355 64.71281433 C-56.36950207 63.86554423 -56.3782406 63.01827413 -56.38724393 62.14532918 C-56.34301332 56.42636739 -56.34301332 56.42636739 -54.60192853 54.26218969 C-53 53 -53 53 -51 53 C-50.7525 52.4225 -50.505 51.845 -50.25 51.25 C-48.81700012 48.67060021 -47.21575324 46.93878408 -45 45 C-44.34 45 -43.68 45 -43 45 C-42.7525 44.4225 -42.505 43.845 -42.25 43.25 C-40.81700012 40.67060021 -39.21575324 38.93878408 -37 37 C-36.34 37 -35.68 37 -35 37 C-34.7525 36.4225 -34.505 35.845 -34.25 35.25 C-32.81700012 32.67060021 -31.21575324 30.93878408 -29 29 C-28.34 29 -27.68 29 -27 29 C-26.7525 28.4225 -26.505 27.845 -26.25 27.25 C-24.81700012 24.67060021 -23.21575324 22.93878408 -21 21 C-20.34 21 -19.68 21 -19 21 C-18.7525 20.4225 -18.505 19.845 -18.25 19.25 C-16.81700012 16.67060021 -15.21575324 14.93878408 -13 13 C-12.34 13 -11.68 13 -11 13 C-10.7525 12.4225 -10.505 11.845 -10.25 11.25 C-8.81700012 8.67060021 -7.21575324 6.93878408 -5 5 C-4.34 5 -3.68 5 -3 5 C-3 4.34 -3 3.68 -3 3 C-2.34 3 -1.68 3 -1 3 C-0.67 2.01 -0.34 1.02 0 0 Z " fill="#211A14" transform="translate(699,419)"/>
<path d="M0 0 C0.99 0.33 1.98 0.66 3 1 C2.01 4.3 1.02 7.6 0 11 C-1.670625 11.12375 -1.670625 11.12375 -3.375 11.25 C-7.00648215 11.59931526 -7.00648215 11.59931526 -8.5 13.875 C-9.23577017 16.16786836 -9.23577017 16.16786836 -8 19 C-10.25 19.6875 -10.25 19.6875 -13 20 C-14.32 19.01 -15.64 18.02 -17 17 C-11.39 11.39 -5.78 5.78 0 0 Z " fill="#28231F" transform="translate(317,292)"/>
<path d="M0 0 C0.66 0 1.32 0 2 0 C2.33 0.99 2.66 1.98 3 3 C5.37625345 4.18391223 5.37625345 4.18391223 8 5 C8.99 5.33 9.98 5.66 11 6 C11.33 7.98 11.66 9.96 12 12 C12.99 12.33 13.98 12.66 15 13 C15.33 13.66 15.66 14.32 16 15 C16.99 15.66 17.98 16.32 19 17 C18.67 18.65 18.34 20.3 18 22 C10.84198775 16.17371096 4.47408234 9.5617015 -2 3 C-1.34 2.67 -0.68 2.34 0 2 C0 1.34 0 0.68 0 0 Z " fill="#2C2722" transform="translate(404,452)"/>
<path d="M0 0 C0.37125 1.670625 0.37125 1.670625 0.75 3.375 C1.57686044 7.04021167 1.57686044 7.04021167 4 8.1875 C4.66 8.455625 5.32 8.72375 6 9 C6.68268138 10.32520503 7.3507041 11.65812182 8 13 C8.99 13.33 9.98 13.66 11 14 C10.01 14.66 9.02 15.32 8 16 C3.38 11.38 -1.24 6.76 -6 2 C-2 0 -2 0 0 0 Z " fill="#292823" transform="translate(478,523)"/>
<path d="M0 0 C3.74020498 1.68152073 5.56134348 3.69039473 8 7 C7.01 7 6.02 7 5 7 C5.33 8.32 5.66 9.64 6 11 C4.125 11.625 4.125 11.625 2 12 C0 10 0 10 -0.1953125 7.6171875 C-0.17210937 6.71226562 -0.14890625 5.80734375 -0.125 4.875 C-0.10695313 3.96492188 -0.08890625 3.05484375 -0.0703125 2.1171875 C-0.04710937 1.41851562 -0.02390625 0.71984375 0 0 Z " fill="#1F1B19" transform="translate(344,420)"/>
<path d="M0 0 C1.125 1.6875 1.125 1.6875 2 4 C1.125 6.75 1.125 6.75 0 9 C-1.14926266 8.04578192 -2.29430541 7.08647955 -3.4375 6.125 C-4.07558594 5.59132813 -4.71367187 5.05765625 -5.37109375 4.5078125 C-7 3 -7 3 -8 1 C-5.07175348 0.02391783 -3.04386724 -0.08226668 0 0 Z " fill="#24221D" transform="translate(446,489)"/>
<path d="M0 0 C2.31 0 4.62 0 7 0 C7.33 0.66 7.66 1.32 8 2 C8.99 2 9.98 2 11 2 C10.34 4.31 9.68 6.62 9 9 C7.87105124 8.06725891 6.74699124 7.12859878 5.625 6.1875 C4.99851562 5.66542969 4.37203125 5.14335937 3.7265625 4.60546875 C2 3 2 3 0 0 Z " fill="#302A28" transform="translate(373,425)"/>
<path d="M0 0 C0 3.38023517 -0.87455622 5.83468937 -2 9 C-2.99 8.67 -3.98 8.34 -5 8 C-5 8.99 -5 9.98 -5 11 C-5 12.66666667 -5 14.33333333 -5 16 C-6.65 14.68 -8.3 13.36 -10 12 C-8.52278578 8.54798361 -6.56205999 6.35038064 -3.875 3.75 C-3.15054687 3.04359375 -2.42609375 2.3371875 -1.6796875 1.609375 C-1.12539063 1.07828125 -0.57109375 0.5471875 0 0 Z " fill="#403C3A" transform="translate(289,320)"/>
<path d="M0 0 C3.15140423 0.34069235 4.60781561 0.58076841 6.8125 2.9375 C8 5 8 5 8 7 C8.928125 7.4640625 8.928125 7.4640625 9.875 7.9375 C11.25 8.625 12.625 9.3125 14 10 C14 10.66 14 11.32 14 12 C14.66 12.33 15.32 12.66 16 13 C15.01 13.33 14.02 13.66 13 14 C10.83031809 11.85714108 8.66416525 9.71091768 6.5 7.5625 C5.87996094 6.95083984 5.25992187 6.33917969 4.62109375 5.70898438 C4.03457031 5.12568359 3.44804687 4.54238281 2.84375 3.94140625 C2.02680664 3.13231812 2.02680664 3.13231812 1.19335938 2.30688477 C0 1 0 1 0 0 Z " fill="#2F2C28" transform="translate(500,552)"/>
<path d="M0 0 C1.97677816 1.23548635 3.43672433 2.53039676 5 4.25 C4.34 5.57 3.68 6.89 3 8.25 C1.85073734 7.29578192 0.70569459 6.33647955 -0.4375 5.375 C-1.07558594 4.84132813 -1.71367187 4.30765625 -2.37109375 3.7578125 C-4 2.25 -4 2.25 -5 0.25 C-2 -0.75 -2 -0.75 0 0 Z " fill="#2C2924" transform="translate(427,473.75)"/>
<path d="M0 0 C1.17539996 0.92652701 2.34010577 1.86663387 3.5 2.8125 C4.1496875 3.33457031 4.799375 3.85664063 5.46875 4.39453125 C7 6 7 6 7 9 C4.36 7.68 1.72 6.36 -1 5 C-1.33 5.66 -1.66 6.32 -2 7 C-2.6875 5.1875 -2.6875 5.1875 -3 3 C-1.51953125 1.36328125 -1.51953125 1.36328125 0 0 Z " fill="#2E2827" transform="translate(355,430)"/>
<path d="M0 0 C0.9590625 0.556875 0.9590625 0.556875 1.9375 1.125 C2.5975 1.455 3.2575 1.785 3.9375 2.125 C3.6075 4.105 3.2775 6.085 2.9375 8.125 C1.78823734 7.17078192 0.64319459 6.21147955 -0.5 5.25 C-1.13808594 4.71632813 -1.77617187 4.18265625 -2.43359375 3.6328125 C-4.0625 2.125 -4.0625 2.125 -5.0625 0.125 C-2.0625 -0.875 -2.0625 -0.875 0 0 Z " fill="#2C2A25" transform="translate(435.0625,481.875)"/>
<path d="M0 0 C1.17539996 0.92652701 2.34010577 1.86663387 3.5 2.8125 C4.1496875 3.33457031 4.799375 3.85664063 5.46875 4.39453125 C7 6 7 6 7 9 C6.34 9 5.68 9 5 9 C4.67 9.66 4.34 10.32 4 11 C3.731875 10.21625 3.46375 9.4325 3.1875 8.625 C2.15185568 5.71885077 2.15185568 5.71885077 -1 4 C-0.67 2.68 -0.34 1.36 0 0 Z " fill="#2F2B2A" transform="translate(365,440)"/>
<path d="M0 0 C3 3.75 3 3.75 3 6 C0.75 6.6875 0.75 6.6875 -2 7 C-4.3125 5.5625 -4.3125 5.5625 -6 4 C-4.02 2.68 -2.04 1.36 0 0 Z " fill="#29221F" transform="translate(306,305)"/>
<path d="M0 0 C2.9375 0.8125 2.9375 0.8125 6 2 C6.33 2.99 6.66 3.98 7 5 C7.66 5 8.32 5 9 5 C9 5.66 9 6.32 9 7 C9.99 7.33 10.98 7.66 12 8 C10.265625 8.7421875 10.265625 8.7421875 8 9 C5.859375 7.3828125 5.859375 7.3828125 3.75 5.125 C3.04359375 4.38507812 2.3371875 3.64515625 1.609375 2.8828125 C0 1 0 1 0 0 Z " fill="#31302D" transform="translate(457,509)"/>
<path d="M0 0 C0.99 0.66 1.98 1.32 3 2 C0.24865461 4.95514876 -2.39733775 7.1524809 -6 9 C-6.99 9 -7.98 9 -9 9 C-6.03 6.03 -3.06 3.06 0 0 Z " fill="#3A3734" transform="translate(637,370)"/>
<path d="M0 0 C1.17539996 0.92652701 2.34010577 1.86663387 3.5 2.8125 C4.1496875 3.33457031 4.799375 3.85664063 5.46875 4.39453125 C7 6 7 6 7 9 C1.39130435 6.56143667 1.39130435 6.56143667 -0.4375 3.9375 C-1 2 -1 2 0 0 Z " fill="#33302F" transform="translate(379,454)"/>
<path d="M0 0 C4.19162145 0.95264124 5.7207791 1.63260408 8.375 5.125 C8.91125 6.07375 9.4475 7.0225 10 8 C7 8 7 8 5.17578125 6.50390625 C4.56089844 5.86324219 3.94601562 5.22257812 3.3125 4.5625 C2.68988281 3.92441406 2.06726563 3.28632813 1.42578125 2.62890625 C0 1 0 1 0 0 Z " fill="#37332F" transform="translate(393,445)"/>
<path d="M0 0 C2.97 0.495 2.97 0.495 6 1 C6 1.66 6 2.32 6 3 C6.66 3 7.32 3 8 3 C8 4.65 8 6.3 8 8 C6.85073734 7.04578192 5.70569459 6.08647955 4.5625 5.125 C3.92441406 4.59132813 3.28632813 4.05765625 2.62890625 3.5078125 C1 2 1 2 0 0 Z " fill="#383332" transform="translate(349,401)"/>
<path d="M0 0 C2.97 0.495 2.97 0.495 6 1 C6 1.66 6 2.32 6 3 C6.66 3 7.32 3 8 3 C8 4.65 8 6.3 8 8 C6.85073734 7.04578192 5.70569459 6.08647955 4.5625 5.125 C3.92441406 4.59132813 3.28632813 4.05765625 2.62890625 3.5078125 C1 2 1 2 0 0 Z " fill="#383332" transform="translate(341,393)"/>
<path d="M0 0 C3.67420866 0.30618405 4.78135513 0.75771784 7.3125 3.5625 C8.1478125 4.7690625 8.1478125 4.7690625 9 6 C8.34 6.66 7.68 7.32 7 8 C5.83035398 6.8572081 4.66435444 5.71068285 3.5 4.5625 C2.8503125 3.92441406 2.200625 3.28632813 1.53125 2.62890625 C0 1 0 1 0 0 Z " fill="#34302D" transform="translate(385,437)"/>
<path d="M0 0 C1.65 1.65 3.3 3.3 5 5 C4.34 5.66 3.68 6.32 3 7 C1.02 6.01 -0.96 5.02 -3 4 C-2.01 2.68 -1.02 1.36 0 0 Z " fill="#302928" transform="translate(387,462)"/>
<path d="M0 0 C0.99 0.99 1.98 1.98 3 3 C2.34 3 1.68 3 1 3 C0.67 3.99 0.34 4.98 0 6 C-0.99 6.33 -1.98 6.66 -3 7 C-3.66 6.34 -4.32 5.68 -5 5 C-3.35 3.35 -1.7 1.7 0 0 Z " fill="#33312E" transform="translate(656,351)"/>
<path d="M0 0 C0.99 0.33 1.98 0.66 3 1 C3 1.66 3 2.32 3 3 C0.75 5.1875 0.75 5.1875 -2 7 C-3.32 6.67 -4.64 6.34 -6 6 C-4.02 4.02 -2.04 2.04 0 0 Z " fill="#3B3533" transform="translate(309,300)"/>
<path d="M0 0 C0.33 1.32 0.66 2.64 1 4 C2.32 4 3.64 4 5 4 C5.33 5.32 5.66 6.64 6 8 C3 8 3 8 1.61328125 6.6875 C0.40885417 5.125 -0.79557292 3.5625 -2 2 C-1.34 2 -0.68 2 0 2 C0 1.34 0 0.68 0 0 Z " fill="#32302D" transform="translate(452,500)"/>
<path d="M0 0 C0.66 0 1.32 0 2 0 C2 0.99 2 1.98 2 3 C2.99 3.33 3.98 3.66 5 4 C4.34 5.32 3.68 6.64 3 8 C1.5 6.8125 1.5 6.8125 0 5 C-0.1875 2.3125 -0.1875 2.3125 0 0 Z " fill="#2F2827" transform="translate(361,409)"/>
<path d="M0 0 C1.32 0.66 2.64 1.32 4 2 C3.34 3.32 2.68 4.64 2 6 C2 5.01 2 4.02 2 3 C0.8553125 3.7425 0.8553125 3.7425 -0.3125 4.5 C-3 6 -3 6 -6 6 C-4.02 4.02 -2.04 2.04 0 0 Z " fill="#3E3C3B" transform="translate(324,285)"/>
<path d="M0 0 C2.9375 0.75 2.9375 0.75 6 2 C6.875 4.125 6.875 4.125 7 6 C4 6 4 6 1.8125 4.125 C0 2 0 2 0 0 Z " fill="#292824" transform="translate(489,540)"/>
<path d="M0 0 C0.99 0.33 1.98 0.66 3 1 C2.34 2.98 1.68 4.96 1 7 C0.34 7 -0.32 7 -1 7 C-1.66 5.68 -2.32 4.36 -3 3 C-2.01 2.01 -1.02 1.02 0 0 Z " fill="#2E2A27" transform="translate(317,292)"/>
<path d="M0 0 C1.09658936 3.28976808 0.79953138 4.71303767 0 8 C-0.99 8 -1.98 8 -3 8 C-3.36923077 3.44615385 -3.36923077 3.44615385 -1.5 1.1875 C-1.005 0.795625 -0.51 0.40375 0 0 Z " fill="#3C3936" transform="translate(646,472)"/>
<path d="M0 0 C0.66 0 1.32 0 2 0 C2.33 1.32 2.66 2.64 3 4 C0.36 4.66 -2.28 5.32 -5 6 C-3.38405168 3.95880212 -1.7143618 1.95927063 0 0 Z " fill="#423E3B" transform="translate(661,457)"/>
<path d="M0 0 C1.98 1.65 3.96 3.3 6 5 C5.34 5.66 4.68 6.32 4 7 C2.35 6.01 0.7 5.02 -1 4 C-0.67 2.68 -0.34 1.36 0 0 Z " fill="#352F2E" transform="translate(373,448)"/>
<path d="M0 0 C1.65 1.65 3.3 3.3 5 5 C2.69 5.33 0.38 5.66 -2 6 C-1.49396008 3.83125748 -1.00016187 2.00032373 0 0 Z " fill="#2F2A29" transform="translate(347,422)"/>
<path d="M0 0 C2.97 0.495 2.97 0.495 6 1 C6 1.66 6 2.32 6 3 C6.66 3.33 7.32 3.66 8 4 C7.34 4 6.68 4 6 4 C5.67 4.66 5.34 5.32 5 6 C3.35 4.02 1.7 2.04 0 0 Z " fill="#393434" transform="translate(317,369)"/>
<path d="M0 0 C0.66 0 1.32 0 2 0 C2.6875 2.3125 2.6875 2.3125 3 5 C1.5625 6.8125 1.5625 6.8125 0 8 C-0.66 7.67 -1.32 7.34 -2 7 C-2 6.34 -2 5.68 -2 5 C-1.34 5 -0.68 5 0 5 C0 3.35 0 1.7 0 0 Z " fill="#25211C" transform="translate(516,560)"/>
<path d="M0 0 C2.97 0.495 2.97 0.495 6 1 C6 1.66 6 2.32 6 3 C6.66 3.33 7.32 3.66 8 4 C7.34 4 6.68 4 6 4 C5.67 4.66 5.34 5.32 5 6 C3.35 4.02 1.7 2.04 0 0 Z " fill="#393635" transform="translate(301,353)"/>
<path d="M0 0 C0 3.16880694 -0.2058242 4.43689172 -2 7 C-4.625 7.75 -4.625 7.75 -7 8 C-6.02133662 6.85373678 -5.04205413 5.70800212 -4.0625 4.5625 C-3.51722656 3.92441406 -2.97195313 3.28632813 -2.41015625 2.62890625 C-1.63204305 1.73008851 -0.84063472 0.84063472 0 0 Z " fill="#43403E" transform="translate(297,312)"/>
<path d="M0 0 C0.99 0.33 1.98 0.66 3 1 C3 1.66 3 2.32 3 3 C3.66 3.33 4.32 3.66 5 4 C3.02 4.33 1.04 4.66 -1 5 C-1.33 4.01 -1.66 3.02 -2 2 C-1.34 2 -0.68 2 0 2 C0 1.34 0 0.68 0 0 Z " fill="#24211C" transform="translate(489,536)"/>
<path d="M0 0 C0.598125 0.350625 1.19625 0.70125 1.8125 1.0625 C0.8225 2.0525 -0.1675 3.0425 -1.1875 4.0625 C-2.5075 2.7425 -3.8275 1.4225 -5.1875 0.0625 C-2.1875 -0.9375 -2.1875 -0.9375 0 0 Z " fill="#2C2A26" transform="translate(443.1875,489.9375)"/>
<path d="M0 0 C0.66 1.65 1.32 3.3 2 5 C1.01 5 0.02 5 -1 5 C-2.6875 3 -2.6875 3 -4 1 C-2 0 -2 0 0 0 Z " fill="#2F2A25" transform="translate(499,546)"/>
<path d="M0 0 C0.33 0.99 0.66 1.98 1 3 C-0.32 3.99 -1.64 4.98 -3 6 C-3.33 5.01 -3.66 4.02 -4 3 C-3 1 -3 1 0 0 Z " fill="#251E20" transform="translate(693,400)"/>
<path d="M0 0 C1.32 1.32 2.64 2.64 4 4 C2.35 5.32 0.7 6.64 -1 8 C-1 7.01 -1 6.02 -1 5 C-0.34 5 0.32 5 1 5 C0.67 3.35 0.34 1.7 0 0 Z " fill="#2A2725" transform="translate(697,392)"/>
<path d="M0 0 C1.65 1.65 3.3 3.3 5 5 C4.01 5.495 4.01 5.495 3 6 C1.68 5.01 0.36 4.02 -1 3 C-0.67 2.01 -0.34 1.02 0 0 Z " fill="#23201D" transform="translate(683,378)"/>
<path d="M0 0 C3.16115776 1.36983503 3.9927092 1.9890638 6 5 C5.01 5.495 5.01 5.495 4 6 C2.62437146 4.71034824 1.29233607 3.37310707 0 2 C0 1.34 0 0.68 0 0 Z " fill="#353132" transform="translate(416,377)"/>
<path d="M0 0 C2.31 0 4.62 0 7 0 C6.34 1.65 5.68 3.3 5 5 C3.35 3.35 1.7 1.7 0 0 Z " fill="#393533" transform="translate(325,377)"/>
</svg>
