<?xml version="1.0" encoding="UTF-8"?>
<svg version="1.1" xmlns="http://www.w3.org/2000/svg" width="512" height="512">
<path d="M0 0 C0.79188721 0.00088623 1.58377441 0.00177246 2.3996582 0.00268555 C11.19130794 0.17680387 19.06625292 2.28745671 27.0625 6 C30.56387925 7.37554185 33.34214418 7.76812953 37.0625 8.1875 C56.24945155 10.72545655 71.26204145 22.07798733 85.5625 34.375 C86.65498047 35.28378906 86.65498047 35.28378906 87.76953125 36.2109375 C101.92296616 48.17234903 101.92296616 48.17234903 103 55.25 C102.5625 58.375 102.5625 58.375 100.4375 61.25 C97.5625 63.375 97.5625 63.375 94.75 64.125 C88.75063668 62.7133851 85.08017638 57.94855548 80.91015625 53.625 C67.53923455 39.78267494 51.35644943 26.65712593 31.5625 24.375 C33.38446436 42.59464363 44.97683646 56.48765413 56.61401367 69.78125 C61.48507172 75.3490753 61.48507172 75.3490753 61.8125 79.6875 C61.54660013 83.60952302 60.82581922 85.24117338 58.5625 88.375 C57.9025 89.365 57.2425 90.355 56.5625 91.375 C57.44164062 91.64699219 58.32078125 91.91898437 59.2265625 92.19921875 C62.34761247 93.29926095 65.0354782 94.61176037 67.9375 96.1875 C81.51534057 103.07774745 95.5253088 107.24627688 110.5625 103.375 C109.45754398 96.90255856 109.45754398 96.90255856 107.4375 90.6875 C106.19674097 87.40835113 106.18380045 84.84641256 106.5625 81.375 C108.0625 78.9375 108.0625 78.9375 110.5625 77.375 C113.34049312 76.82281694 115.81590424 76.6454355 118.5625 77.375 C125.39861287 82.73542061 126.44056849 92.72628852 127.5 100.875 C128.29592273 106.83718479 130.11227251 111.97089914 132.44140625 117.5 C135.75357043 125.99391231 136.46930496 138.68515025 133.1875 147.375 C127.5830859 157.48227095 115.62836343 164.19394471 106.51269531 170.92578125 C103.16195263 173.4157673 99.86277318 175.97091852 96.55834961 178.52197266 C96.02991455 178.9297998 95.50147949 179.33762695 94.95703125 179.7578125 C94.41385254 180.17708008 93.87067383 180.59634766 93.31103516 181.02832031 C89.984847 183.59007037 86.64821297 186.13817295 83.3125 188.6875 C82.59586182 189.235271 81.87922363 189.78304199 81.14086914 190.34741211 C79.67793786 191.46554807 78.2149656 192.58363043 76.75195312 193.70166016 C73.18821009 196.42533263 69.62538197 199.1502013 66.0625 201.875 C61.76609801 205.16077558 57.46947288 208.44625741 53.171875 211.73046875 C45.66172129 217.47032407 38.1567316 223.21663219 30.66796875 228.984375 C28.56793382 230.60100566 26.46669656 232.21591114 24.36328125 233.828125 C21.09112183 236.33699478 17.82548349 238.85421152 14.5625 241.375 C13.99917969 241.80925293 13.43585938 242.24350586 12.85546875 242.69091797 C5.60466065 248.29065323 -1.47754345 254.03773843 -8.40039062 260.0390625 C-11.83723232 263.01688718 -15.32124357 265.91120049 -18.875 268.75 C-25.50843309 274.1297932 -31.7173053 279.9868351 -37.88037109 285.89477539 C-39.17801636 287.12833187 -40.50901326 288.32668439 -41.84765625 289.515625 C-43.76380942 291.75662969 -43.89717276 292.90389769 -43.9375 295.8125 C-43.99882688 300.2203692 -45.33792423 302.24065335 -48.4375 305.375 C-51.46793026 307.30623472 -54.71133966 308.78930011 -57.94921875 310.3359375 C-58.91794922 310.81933594 -58.91794922 310.81933594 -59.90625 311.3125 C-60.77926758 311.72822266 -60.77926758 311.72822266 -61.66992188 312.15234375 C-64.11282378 313.84213004 -65.66573796 316.01394718 -67.4375 318.375 C-66.95095947 319.39819336 -66.46441895 320.42138672 -65.96313477 321.47558594 C-65.26838739 322.9368468 -64.57364499 324.39811003 -63.87890625 325.859375 C-63.50280212 326.65032562 -63.126698 327.44127625 -62.73919678 328.25619507 C-60.63304828 332.68634542 -58.52901086 337.1174823 -56.4284668 341.55029297 C-52.51358288 349.80958451 -48.59495582 358.06641412 -44.6174469 366.29577637 C-43.03116473 369.58020773 -41.45348794 372.86873238 -39.87692261 376.15783691 C-39.128746 377.71282535 -38.37643553 379.26583189 -37.61990356 380.81677246 C-36.56539127 382.97967958 -35.52539509 385.14902152 -34.48828125 387.3203125 C-34.17671082 387.94988861 -33.86514038 388.57946472 -33.54412842 389.2281189 C-31.71789488 393.09737478 -30.95694627 396.10603659 -31.4375 400.375 C-33.23743774 403.07490662 -34.521273 404.9168865 -37.4375 406.375 C-39.19076456 406.31028218 -40.94156454 406.17272624 -42.6875 406 C-47.51844413 405.54856469 -52.34725728 405.15190726 -57.1875 404.8125 C-58.37859375 404.72871094 -59.5696875 404.64492188 -60.796875 404.55859375 C-61.66828125 404.49800781 -62.5396875 404.43742187 -63.4375 404.375 C-63.75501221 404.90456299 -64.07252441 405.43412598 -64.3996582 405.97973633 C-65.84527738 408.38505892 -67.29755426 410.78629399 -68.75 413.1875 C-69.24951172 414.02087891 -69.74902344 414.85425781 -70.26367188 415.71289062 C-70.75029297 416.51533203 -71.23691406 417.31777344 -71.73828125 418.14453125 C-72.40597534 419.25211792 -72.40597534 419.25211792 -73.0871582 420.38208008 C-75.23488536 423.5518318 -76.57512782 425.13128612 -80.3125 426.1875 C-83.9298801 426.40454281 -85.31820637 426.21628258 -88.4375 424.375 C-90.2038447 421.81732388 -91.46495443 419.07368646 -92.75 416.25 C-93.28850586 415.11884766 -93.28850586 415.11884766 -93.83789062 413.96484375 C-94.71908936 412.10845175 -95.580282 410.24258661 -96.4375 408.375 C-96.45167969 409.61636719 -96.46585937 410.85773438 -96.48046875 412.13671875 C-96.527382 413.77868243 -96.57562932 415.42060837 -96.625 417.0625 C-96.63370117 418.28743164 -96.63370117 418.28743164 -96.64257812 419.53710938 C-96.79636588 423.75772896 -97.10892764 425.89580666 -99.55078125 429.45703125 C-103.34755695 431.97965218 -104.9408323 432.20234946 -109.4375 431.375 C-112.6883058 429.63229242 -115.60419224 427.5079274 -118.5625 425.3125 C-120.11760082 424.16213396 -121.6824282 423.02477186 -123.2578125 421.90234375 C-123.94117676 421.39437256 -124.62454102 420.88640137 -125.32861328 420.36303711 C-128.14235949 419.04476541 -129.51980934 419.41395971 -132.4375 420.375 C-134.39549699 421.46518258 -134.39549699 421.46518258 -136.1796875 422.87890625 C-136.85386719 423.37197266 -137.52804688 423.86503906 -138.22265625 424.37304688 C-139.61276676 425.413681 -140.99823264 426.46054938 -142.37890625 427.51367188 C-146.84522437 430.75919637 -149.71324359 432.19174507 -155.4375 431.375 C-158.375 429.5625 -158.375 429.5625 -160.4375 427.375 C-160.4375 426.385 -160.4375 425.395 -160.4375 424.375 C-161.0975 424.375 -161.7575 424.375 -162.4375 424.375 C-162.65921875 424.88804687 -162.8809375 425.40109375 -163.109375 425.9296875 C-164.97891768 429.37184549 -167.32103526 432.38527006 -169.6875 435.5 C-170.47833984 436.54800781 -170.47833984 436.54800781 -171.28515625 437.6171875 C-175.87304858 443.67707339 -180.54361599 449.67180944 -185.22363281 455.66064453 C-189.01828875 460.524438 -192.7517819 465.42824858 -196.4375 470.375 C-202.47924096 478.47873392 -208.67006043 486.4617096 -214.90869141 494.41455078 C-216.23773173 496.11882957 -217.54828024 497.83749741 -218.85546875 499.55859375 C-223.25166141 505.28129716 -227.38822826 510.02524275 -234.4375 512.375 C-267.299247 514.46963591 -293.92370832 495.44761754 -317.6171875 474.59375 C-320.60348268 471.90053949 -323.53536132 469.1580245 -326.4375 466.375 C-326.99679199 465.84293945 -327.55608398 465.31087891 -328.13232422 464.76269531 C-336.73951924 456.53302968 -344.35149526 447.93800677 -351.4375 438.375 C-352.28773745 437.25519089 -353.1379977 436.1353991 -353.98828125 435.015625 C-366.37088804 418.45757158 -377.48805386 399.71028533 -377.75 378.5625 C-377.79350586 377.40911133 -377.79350586 377.40911133 -377.83789062 376.23242188 C-377.91398169 369.29642877 -375.9650967 364.29447215 -371.421875 359.046875 C-365.08884429 353.59958285 -358.49500891 348.57616661 -351.78125 343.61328125 C-347.27540548 340.27376354 -342.85361835 336.83185618 -338.4375 333.375 C-332.81521534 328.98003944 -327.16013599 324.63849199 -321.4375 320.375 C-315.79830644 316.17356315 -310.22638899 311.89526273 -304.6875 307.5625 C-298.24570494 302.52416593 -291.7417233 297.57862797 -285.1875 292.6875 C-277.73101003 287.1204148 -270.3642408 281.45948725 -263.07763672 275.67236328 C-261.41320316 274.35578098 -259.74115026 273.0495297 -258.06640625 271.74609375 C-238.95087141 256.85575408 -219.59529769 241.53279769 -202.4375 224.375 C-202.23317807 221.92313683 -202.11842632 219.47357857 -202.01171875 217.015625 C-201.25407319 213.53148623 -199.94848539 211.89021264 -197.4375 209.375 C-194.66796875 208.00390625 -194.66796875 208.00390625 -191.625 206.9375 C-181.39829571 202.85177068 -177.59273085 197.62371709 -172.63208008 188.02416992 C-169.09385871 181.26008766 -169.09385871 181.26008766 -165.4375 179.375 C-163.25390625 179.0390625 -163.25390625 179.0390625 -161 179 C-157.52087194 178.70487005 -156.63912772 178.53822244 -153.8125 176.25 C-153.02875 175.30125 -152.245 174.3525 -151.4375 173.375 C-150.25902912 172.19921356 -149.07093977 171.03301357 -147.875 169.875 C-145.17604184 167.18777644 -142.80678277 164.35854127 -140.4375 161.375 C-137.34576248 159.82913124 -134.84320448 160.08140479 -131.4375 160.375 C-129 161.875 -129 161.875 -127.4375 164.375 C-126.87347081 169.41992778 -126.72129719 171.34898617 -129.66796875 175.5703125 C-130.63386998 176.56643922 -131.62029977 177.54301981 -132.625 178.5 C-134.08151295 179.966236 -135.53406959 181.43629589 -136.98583984 182.90722656 C-137.97369365 183.90604545 -138.97466646 184.8920206 -139.98681641 185.86621094 C-141.65048011 187.51447566 -141.65048011 187.51447566 -143.4375 190.375 C-142.47882121 199.10143512 -133.64913565 209.52710212 -127.4375 215.375 C-123.57020347 217.58396141 -119.56821336 218.17534874 -115.2109375 218.78125 C-106.1847896 220.20151344 -99.2959873 225.61674503 -93.4375 232.375 C-88.91554256 229.91314037 -85.31693881 226.77803594 -81.5 223.375 C-74.95515153 217.62555187 -68.24411933 212.17051132 -61.34765625 206.85107422 C-59.27870816 205.25229353 -57.21697353 203.64452256 -55.15625 202.03515625 C-45.6641666 194.62604635 -36.12130881 187.28551407 -26.54638672 179.98388672 C-23.00763119 177.28414153 -19.47277277 174.57930311 -15.9375 171.875 C-14.52085181 170.7916425 -13.10418515 169.70830916 -11.6875 168.625 C-10.98625 168.08875 -10.285 167.5525 -9.5625 167 C-3.18749999 162.12499999 -3.18749999 162.12499999 -1.06152344 160.49926758 C0.35190651 159.41839983 1.76531804 158.33750799 3.17871094 157.2565918 C6.76974701 154.51033495 10.3611248 151.76452697 13.953125 149.01953125 C14.6762085 148.46676514 15.39929199 147.91399902 16.14428711 147.34448242 C17.57434156 146.2516123 19.00483337 145.1593142 20.43579102 144.06762695 C23.78782769 141.50813978 27.12977408 138.93759569 30.44921875 136.3359375 C31.05088867 135.86631592 31.65255859 135.39669434 32.27246094 134.9128418 C33.89149146 133.64731638 35.50644267 132.37657705 37.12109375 131.10546875 C39.5625 129.375 39.5625 129.375 41.5625 129.375 C38.88196293 125.94056188 36.19464484 122.96544522 32.87109375 120.14453125 C22.16949354 110.88423635 12.11086335 100.65821451 3.5625 89.375 C3.13662598 88.82553711 2.71075195 88.27607422 2.27197266 87.70996094 C-7.47302993 75.11503735 -15.27903936 61.9411034 -21.24609375 47.16796875 C-22.39256136 44.24334552 -22.39256136 44.24334552 -24.4375 41.375 C-25.22511719 42.40496094 -26.01273437 43.43492188 -26.82421875 44.49609375 C-28.51692708 46.70963542 -30.20963542 48.92317708 -31.90234375 51.13671875 C-32.505625 51.925625 -33.10890625 52.71453125 -33.73046875 53.52734375 C-34.96614583 55.14322917 -36.20182292 56.75911458 -37.4375 58.375 C-38.27015381 59.46385498 -38.27015381 59.46385498 -39.11962891 60.57470703 C-39.65378418 61.27321777 -40.18793945 61.97172852 -40.73828125 62.69140625 C-41.26744141 63.38339111 -41.79660156 64.07537598 -42.34179688 64.78833008 C-43.41208525 66.18792535 -44.48239804 67.58750195 -45.55273438 68.98706055 C-48.30004899 72.57948022 -51.04691553 76.172241 -53.79296875 79.765625 C-59.46962616 87.19302722 -65.15516621 94.61326016 -70.859375 102.01953125 C-73.26522932 105.1469542 -75.65905451 108.28347852 -78.05249023 111.42041016 C-83.30266378 118.29886658 -88.57347309 125.16103029 -93.875 132 C-94.44186523 132.73371826 -95.00873047 133.46743652 -95.59277344 134.22338867 C-106.37291952 148.0997226 -106.37291952 148.0997226 -111.25 148.75 C-114.4375 148.375 -114.4375 148.375 -117.3125 146.25 C-119.8642793 142.79759271 -119.95369124 141.57679668 -119.4375 137.375 C-117.7421875 134.578125 -117.7421875 134.578125 -115.3125 131.625 C-114.38633888 130.4755664 -113.46058 129.32580861 -112.53515625 128.17578125 C-112.03387207 127.56299316 -111.53258789 126.95020508 -111.01611328 126.31884766 C-108.20654564 122.85924705 -105.48326796 119.33246075 -102.75 115.8125 C-102.1629126 115.0596875 -101.5758252 114.306875 -100.97094727 113.53125 C-95.84079374 106.93859206 -90.83428417 100.25706665 -85.83764648 93.56298828 C-81.79521434 88.15726948 -77.68533602 82.81514081 -73.49487305 77.52368164 C-68.28210245 70.93533216 -63.20026436 64.24748175 -58.10791016 57.56591797 C-55.32536924 53.91632396 -52.53775078 50.27061511 -49.75 46.625 C-49.20617676 45.9136792 -48.66235352 45.2023584 -48.10205078 44.46948242 C-44.09450529 39.22935902 -40.07758224 33.99667245 -36.04296875 28.77734375 C-34.06206701 26.20457306 -32.1154153 23.60791423 -30.17578125 21.00390625 C-29.60794922 20.24722656 -29.04011719 19.49054687 -28.45507812 18.7109375 C-27.35225499 17.24050665 -26.2554675 15.76552119 -25.16601562 14.28515625 C-18.12826327 4.93689652 -12.05410507 -0.02422808 0 0 Z M-8.4375 19.375 C-11.25352183 27.82306548 -8.1994269 35.2864998 -5.4375 43.375 C-2.50168143 43.71278061 -2.50168143 43.71278061 -1.09057617 42.14086914 C-0.64174072 41.56973389 -0.19290527 40.99859863 0.26953125 40.41015625 C1.02218262 39.46281616 1.02218262 39.46281616 1.79003906 38.49633789 C2.31307617 37.81692139 2.83611328 37.13750488 3.375 36.4375 C3.90963867 35.7561499 4.44427734 35.0747998 4.99511719 34.37280273 C8.76072137 29.5315575 12.33663636 24.59580563 15.5625 19.375 C8.3256438 16.03491252 -2.06024201 13.1440094 -8.4375 19.375 Z M17.5625 43.375 C16.0041888 45.354556 14.49180998 47.34632118 13 49.375 C12.57525391 49.94734375 12.15050781 50.5196875 11.71289062 51.109375 C10.65990223 52.52913463 9.61083735 53.95180263 8.5625 55.375 C15.4023615 62.26219618 22.51422535 68.47385154 30.3125 74.25 C30.9504248 74.72646973 31.58834961 75.20293945 32.24560547 75.69384766 C35.57036912 78.12143904 38.61311925 80.06356441 42.5625 81.375 C42.5625 77.60925395 41.76168675 77.25006001 39.1875 74.625 C30.73165016 65.41951808 24.23466138 54.46568954 18.5625 43.375 C18.2325 43.375 17.9025 43.375 17.5625 43.375 Z M30.5625 94.375 C38.68165191 104.15961897 47.59707873 112.38545777 57.73974609 120.00537109 C58.95847752 120.92113365 60.17234993 121.84339749 61.38134766 122.77197266 C63.1148176 124.09790028 64.86566398 125.3961697 66.625 126.6875 C67.64722656 127.44675781 68.66945313 128.20601562 69.72265625 128.98828125 C72.44058935 130.67598457 72.44058935 130.67598457 75.1328125 129.83203125 C77.70909261 128.28709157 80.03584027 126.63529292 82.375 124.75 C83.16519531 124.11835937 83.95539063 123.48671875 84.76953125 122.8359375 C85.36121094 122.35382813 85.95289063 121.87171875 86.5625 121.375 C83.70597157 118.51847157 80.21266702 117.90564745 76.4375 116.75 C61.94263023 112.10688545 46.44725477 104.92490752 34.296875 95.64453125 C32.65175246 94.17811522 32.65175246 94.17811522 30.5625 94.375 Z M110.7734375 122.26171875 C109.99613281 122.87080078 109.21882813 123.47988281 108.41796875 124.10742188 C107.19013672 125.07518555 107.19013672 125.07518555 105.9375 126.0625 C100.56022072 130.29373029 95.16594018 134.44658282 89.5625 138.375 C94.93644961 142.85747666 102.0140023 144.47358659 108.9375 144.75 C112.69968658 144.36080829 114.61343753 143.69850376 117.5625 141.375 C119.90555079 136.68889842 119.18536874 129.75783507 117.890625 124.8046875 C117.19122611 122.96381684 116.38773223 121.16300318 115.5625 119.375 C113.66964939 119.375 112.19397534 121.14293552 110.7734375 122.26171875 Z M47.6875 143.8125 C46.31364358 144.92849263 44.93863164 146.04306416 43.5625 147.15625 C42.53962891 147.98382813 42.53962891 147.98382813 41.49609375 148.828125 C37.98728969 151.63516825 34.37592089 154.30102263 30.76953125 156.98046875 C26.94406068 159.82623085 23.16017347 162.72597323 19.375 165.625 C18.65747559 166.17446289 17.93995117 166.72392578 17.20068359 167.29003906 C15.72890189 168.4173473 14.2572232 169.54479002 12.78564453 170.67236328 C9.84987388 172.92077801 6.9116011 175.16591054 3.97338867 177.41113281 C-2.71619789 182.52336459 -9.39643005 187.64735935 -16.06640625 192.78515625 C-18.54879351 194.69485699 -21.03688872 196.59692691 -23.52734375 198.49609375 C-37.39917762 209.07468233 -51.0918434 219.83989406 -64.60253906 230.87646484 C-66.28305128 232.24886825 -67.96537824 233.6190037 -69.6484375 234.98828125 C-71.46925744 236.47237422 -73.28027053 237.96863658 -75.078125 239.48046875 C-77.4375 241.375 -77.4375 241.375 -79.734375 242.80078125 C-81.89583561 244.22081061 -83.15684409 245.12085657 -84.4375 247.375 C-84.72654839 253.22267137 -84.0995571 258.43103923 -80.2265625 262.9609375 C-77.23863073 265.54713055 -74.20329649 268.04116117 -71.0625 270.4375 C-70.52367187 270.85837891 -69.98484375 271.27925781 -69.4296875 271.71289062 C-65.60194832 274.6520475 -61.8153089 277.31937779 -57.4375 279.375 C-53.87947339 278.55341931 -51.45774179 275.75525586 -48.8125 273.3125 C-47.93207031 272.50683594 -47.05164063 271.70117188 -46.14453125 270.87109375 C-45.25121094 270.04738281 -44.35789062 269.22367188 -43.4375 268.375 C-37.56761684 263.00272075 -31.60224312 257.82315148 -25.4140625 252.8203125 C-22.68533805 250.57860449 -20.00767401 248.29136089 -17.33984375 245.97827148 C-10.8204895 240.32667195 -4.14429182 234.97734546 2.734375 229.76904297 C6.28314728 227.06291454 9.7941546 224.30798632 13.3125 221.5625 C21.32346439 215.32197987 29.37884812 209.14152702 37.45361328 202.98388672 C40.99236878 200.28414155 44.52723896 197.57931841 48.0625 194.875 C52.35885986 191.58916936 56.65552714 188.30374257 60.953125 185.01953125 C62.40627641 183.90888872 63.85940165 182.79821195 65.3125 181.6875 C66.01753662 181.14859131 66.72257324 180.60968262 67.44897461 180.05444336 C71.8476265 176.69070805 76.23878165 173.31742646 80.625 169.9375 C85.24436657 166.38012348 89.88723126 162.85853357 94.5625 159.375 C93.00605624 156.26211249 89.92300532 155.83608826 86.8125 154.6875 C76.62100255 150.76412727 67.18271121 145.77489034 58.26953125 139.44140625 C53.95454316 136.74577296 50.96277998 141.11356899 47.6875 143.8125 Z M-159.4375 199.375 C-160.64882483 201.04548037 -161.83070662 202.73733369 -163 204.4375 C-168.71791004 212.36715064 -174.525504 217.39643036 -183.4375 221.375 C-181.81635498 226.17321659 -179.14473241 230.0422859 -176.3125 234.1875 C-175.61060547 235.22680664 -175.61060547 235.22680664 -174.89453125 236.28710938 C-173.74637563 237.98591105 -172.59250633 239.68084864 -171.4375 241.375 C-168.64793561 237.8962234 -168.64793561 237.8962234 -165.90234375 234.3828125 C-160.35692981 227.54677793 -153.31294208 223.1743936 -145.4375 219.375 C-148.8607294 213.95657477 -152.29673473 208.54648201 -155.8125 203.1875 C-156.29460937 202.45144531 -156.77671875 201.71539062 -157.2734375 200.95703125 C-157.65757812 200.43496094 -158.04171875 199.91289062 -158.4375 199.375 C-158.7675 199.375 -159.0975 199.375 -159.4375 199.375 Z M-153.2265625 243.26171875 C-160.17471477 251.9725796 -161.55609252 260.30347635 -160.4375 271.375 C-158.128982 280.59533084 -151.49163966 287.55156672 -143.52734375 292.3671875 C-135.90428589 296.04335372 -127.89268326 296.65272174 -119.65234375 294.72265625 C-111.0589512 291.62797238 -105.36131671 286.62247388 -101 278.625 C-97.00642069 269.86313063 -96.46770996 262.14300955 -99.36328125 252.9453125 C-102.66838061 245.03711113 -109.21886735 238.10149261 -117.0625 234.5625 C-130.15207898 229.9569074 -143.6032749 233.11314253 -153.2265625 243.26171875 Z M-194.78515625 239.66015625 C-195.35105469 240.24667969 -195.91695312 240.83320313 -196.5 241.4375 C-200.31344377 245.29707414 -204.31818073 248.84700236 -208.4375 252.375 C-209.51582695 253.30575566 -210.59393466 254.23676537 -211.671875 255.16796875 C-222.70510469 264.68269573 -233.97425669 273.86647898 -245.45849609 282.83007812 C-246.82671408 283.89818612 -248.194179 284.96725921 -249.56103516 286.03710938 C-258.11086349 292.7287725 -266.70052249 299.35525851 -275.40673828 305.84228516 C-280.38432307 309.56046626 -285.29393729 313.35960861 -290.1875 317.1875 C-296.54762269 322.16115996 -302.96647507 327.04656699 -309.4375 331.875 C-318.18821426 338.40606633 -326.81949136 345.07893645 -335.42138672 351.80419922 C-338.41416722 354.13594416 -341.42561137 356.44303105 -344.4375 358.75 C-348.36878605 361.77329866 -352.29241724 364.80514664 -356.1875 367.875 C-356.98671875 368.5040625 -357.7859375 369.133125 -358.609375 369.78125 C-360.85130417 371.73575235 -361.36482049 372.7561859 -361.7109375 375.703125 C-362.59961746 401.26976389 -341.68416508 426.54524493 -325.28564453 444.40234375 C-321.80780341 448.11449121 -318.26598698 451.75993765 -314.6875 455.375 C-313.66039917 456.41624023 -313.66039917 456.41624023 -312.61254883 457.47851562 C-307.85470397 462.20609937 -302.8155563 466.37039729 -297.4375 470.375 C-293.50587506 466.59403952 -290.0675224 462.58946492 -286.6875 458.3125 C-286.16236816 457.6520166 -285.63723633 456.9915332 -285.09619141 456.31103516 C-281.18830368 451.37531943 -277.3874721 446.36972051 -273.6328125 441.31640625 C-270.93884915 437.70687884 -268.19274158 434.13920903 -265.44213867 430.57275391 C-261.99216 426.09849095 -258.55593207 421.61388372 -255.125 417.125 C-254.30696899 416.05487671 -254.30696899 416.05487671 -253.47241211 414.96313477 C-251.79395409 412.76720748 -250.11569301 410.57112982 -248.4375 408.375 C-241.64412638 399.48500325 -234.84499817 390.59976337 -228.01953125 381.734375 C-222.80905679 374.96055491 -217.62640501 368.16534472 -212.4375 361.375 C-205.64412638 352.48500325 -198.84499817 343.59976337 -192.01953125 334.734375 C-187.38821007 328.71347677 -182.7802544 322.67464234 -178.16796875 316.63916016 C-175.15448802 312.69629612 -172.13966119 308.75446149 -169.125 304.8125 C-168.02473381 303.37370233 -166.92447284 301.93490067 -165.82421875 300.49609375 C-165.03660156 299.46613281 -164.24898437 298.43617188 -163.4375 297.375 C-163.83799561 296.87000977 -164.23849121 296.36501953 -164.65112305 295.84472656 C-167.81584397 291.7594206 -170.3521312 287.9744039 -172.25 283.125 C-172.64832031 282.12984375 -173.04664063 281.1346875 -173.45703125 280.109375 C-174.66388718 276.74364133 -175.44783598 274.19154244 -175.40234375 270.59765625 C-175.32357195 261.4938867 -178.18260254 257.02631425 -183.8515625 250.41015625 C-186.69577027 247.07186405 -189.03640515 243.58295986 -191.37890625 239.88671875 C-191.72824219 239.38785156 -192.07757813 238.88898438 -192.4375 238.375 C-193.62725254 238.25997893 -193.62725254 238.25997893 -194.78515625 239.66015625 Z M-84.4375 280.375 C-84.7675 281.035 -85.0975 281.695 -85.4375 282.375 C-84.72771436 284.44700362 -84.72771436 284.44700362 -83.56640625 286.7265625 C-83.15712891 287.57734375 -82.74785156 288.428125 -82.32617188 289.3046875 C-81.88853516 290.19414062 -81.45089844 291.08359375 -81 292 C-80.56623047 292.8971875 -80.13246094 293.794375 -79.68554688 294.71875 C-78.60987245 296.94102245 -77.52695069 299.15945719 -76.4375 301.375 C-73.15560862 300.16200388 -70.42998013 298.83998519 -67.625 296.75 C-66.573125 295.96625 -65.52125 295.1825 -64.4375 294.375 C-68.41225428 291.12844497 -72.51243179 288.10471673 -76.6875 285.125 C-77.32429688 284.66609375 -77.96109375 284.2071875 -78.6171875 283.734375 C-81.28922013 281.4197931 -81.28922013 281.4197931 -84.4375 280.375 Z M-96.4375 298.375 C-101.0703522 303.0078522 -98.34359936 325.02343108 -98.4375 331.9375 C-98.4489505 332.72824795 -98.460401 333.5189959 -98.47219849 334.3337059 C-98.78985436 358.84864121 -97.66346814 380.00081887 -82.4375 400.375 C-78.9091235 399.1988745 -78.7965649 398.63633826 -77.125 395.5 C-74.19465396 390.59561845 -71.10463647 389.08623639 -65.625 387.625 C-61.46053783 387.29837552 -57.55946803 387.8033402 -53.4375 388.375 C-55.7267323 380.56923423 -59.16473707 373.45713263 -62.75900269 366.19268799 C-64.56950624 362.53182158 -66.36059056 358.86147704 -68.15234375 355.19140625 C-68.51499832 354.44936951 -68.87765289 353.70733276 -69.251297 352.94281006 C-72.71640903 345.83657753 -76.06190821 338.67811647 -79.375 331.5 C-80.1642688 329.79336182 -80.1642688 329.79336182 -80.96948242 328.05224609 C-82.9266876 323.81766133 -84.8812371 319.58185709 -86.83398438 315.34521484 C-88.09155144 312.62308701 -89.35707592 309.9048154 -90.625 307.1875 C-90.98779053 306.39682129 -91.35058105 305.60614258 -91.72436523 304.79150391 C-93.31227202 300.90511851 -93.31227202 300.90511851 -96.4375 298.375 Z M-145.4375 309.375 C-145.45151855 310.57829956 -145.45151855 310.57829956 -145.46582031 311.8059082 C-145.51943742 315.43373639 -145.60310298 319.06026292 -145.6875 322.6875 C-145.70167969 323.95013672 -145.71585938 325.21277344 -145.73046875 326.51367188 C-145.76269531 327.72216797 -145.79492188 328.93066406 -145.828125 330.17578125 C-145.84907227 331.29122314 -145.87001953 332.40666504 -145.89160156 333.5559082 C-146.4375 336.375 -146.4375 336.375 -148.25292969 338.26635742 C-151.61158821 339.97083533 -153.88089103 339.34498426 -157.4375 338.375 C-160.75429019 335.12795539 -160.89928597 332.13928055 -161.125 327.625 C-161.19074219 326.45453125 -161.25648438 325.2840625 -161.32421875 324.078125 C-161.38029297 322.74007813 -161.38029297 322.74007813 -161.4375 321.375 C-165.40760172 325.14408391 -168.64883473 329.14895319 -171.875 333.5625 C-176.25482712 339.48070463 -180.70952096 345.32917443 -185.25 351.125 C-190.28883507 357.56639019 -195.23397797 364.07071994 -200.125 370.625 C-204.80032938 376.88880759 -209.52763259 383.09888662 -214.38012695 389.22631836 C-219.59744479 395.82041503 -224.68352358 402.51423352 -229.78027344 409.20166016 C-232.49544637 412.76242466 -235.21672546 416.31851506 -237.9375 419.875 C-241.22334915 424.17134569 -244.50875744 428.46802715 -247.79296875 432.765625 C-252.66620225 439.14181836 -257.5417552 445.51606814 -262.4375 451.875 C-263.61505859 453.40640625 -263.61505859 453.40640625 -264.81640625 454.96875 C-266.23629698 456.81521973 -267.65786422 458.66035432 -269.08154297 460.50390625 C-270.84845898 462.79240841 -272.61190006 465.08355712 -274.375 467.375 C-275.2093457 468.45297852 -275.2093457 468.45297852 -276.06054688 469.55273438 C-278.74975268 473.05365138 -281.27333126 476.5141833 -283.4375 480.375 C-277.41685271 484.49307268 -271.28762378 488.09820322 -264.6875 491.1875 C-264.07447021 491.4769751 -263.46144043 491.7664502 -262.82983398 492.06469727 C-256.76043565 494.84088956 -251.01146001 496.66254621 -244.3125 496.75 C-243.31992188 496.77835938 -242.32734375 496.80671875 -241.3046875 496.8359375 C-236.65966161 496.08918947 -234.35881391 493.48885413 -231.4375 489.95703125 C-230.7775 489.04308594 -230.1175 488.12914062 -229.4375 487.1875 C-228.27541016 485.60195313 -228.27541016 485.60195313 -227.08984375 483.984375 C-226.66815918 483.40751953 -226.24647461 482.83066406 -225.81201172 482.23632812 C-223.25218127 478.76987212 -220.62243377 475.35668545 -218 471.9375 C-217.16178711 470.84272339 -217.16178711 470.84272339 -216.30664062 469.72583008 C-212.21932132 464.3888807 -208.12042461 459.06089884 -204.01953125 453.734375 C-199.3690968 447.68862877 -194.74216756 441.62483784 -190.11083984 435.56445312 C-186.85483605 431.30419021 -183.59745084 427.04498311 -180.33959961 422.78613281 C-177.47931625 419.04666578 -174.6211149 415.30562901 -171.765625 411.5625 C-171.16685547 410.77810547 -170.56808594 409.99371094 -169.95117188 409.18554688 C-168.79562021 407.67168462 -167.64065058 406.15737786 -166.48632812 404.64257812 C-165.71192383 403.6284082 -165.71192383 403.6284082 -164.921875 402.59375 C-164.23689941 401.6955957 -164.23689941 401.6955957 -163.53808594 400.77929688 C-162.4375 399.375 -162.4375 399.375 -161.4375 398.375 C-161.30224092 395.97553054 -161.22700771 393.60072857 -161.19140625 391.19921875 C-161.15845744 389.7167912 -161.12524597 388.23436947 -161.09179688 386.75195312 C-161.0444385 384.4083268 -161.00003731 382.06472232 -160.96069336 379.72094727 C-160.92089577 377.46344669 -160.86935813 375.20644375 -160.81640625 372.94921875 C-160.8079921 372.25116623 -160.79957794 371.55311371 -160.79090881 370.83390808 C-160.69950438 367.22455304 -160.52746082 364.39064065 -158.4375 361.375 C-155.38766004 359.85008002 -152.7951631 360.13937452 -149.4375 360.375 C-147.30165389 361.93208707 -146.54212821 362.83204724 -146.03877258 365.44413757 C-146.02766953 366.2368959 -146.01656647 367.02965424 -146.00512695 367.84643555 C-145.98533279 368.74714279 -145.96553864 369.64785004 -145.94514465 370.57585144 C-145.93555977 372.02910576 -145.93555977 372.02910576 -145.92578125 373.51171875 C-145.90783005 374.50629593 -145.88987885 375.50087311 -145.87138367 376.52558899 C-145.81716984 379.7045161 -145.78334917 382.88329213 -145.75 386.0625 C-145.71683674 388.21681795 -145.68234801 390.37111594 -145.64648438 392.52539062 C-145.56143728 397.80845827 -145.49313442 403.09154521 -145.4375 408.375 C-142.74361909 407.34128522 -140.40958106 406.35689042 -137.98046875 404.78125 C-135.0226569 403.14559368 -133.11368857 402.91092725 -129.75 402.875 C-128.79738281 402.8440625 -127.84476563 402.813125 -126.86328125 402.78125 C-123.4375 403.375 -123.4375 403.375 -113.4375 408.375 C-113.4375 375.705 -113.4375 343.035 -113.4375 309.375 C-115.7475 309.705 -118.0575 310.035 -120.4375 310.375 C-121.89427189 310.45569493 -123.3534969 310.50536685 -124.8125 310.5078125 C-125.94945312 310.50974609 -125.94945312 310.50974609 -127.109375 310.51171875 C-127.87765625 310.50785156 -128.6459375 310.50398438 -129.4375 310.5 C-130.58992188 310.50580078 -130.58992188 310.50580078 -131.765625 310.51171875 C-136.42546251 310.50379386 -140.84122732 310.14512016 -145.4375 309.375 Z " fill="#000000" transform="translate(377.4375,-0.37499999999999994)"/>
<path d="M0 0 C5.09855484 4.11724303 7.922536 9.57705928 9 16 C9.16686036 23.36410375 7.57562789 28.90924653 2.8125 34.625 C-3.50290658 39.95801 -8.76448695 41.7044092 -17.1015625 41.37890625 C-24.09807107 40.46426834 -28.34632256 37.20875692 -32.7734375 31.87890625 C-36.80700168 25.70010253 -36.94703316 19.16089985 -36 12 C-33.57864363 5.73787146 -30.11997945 0.99754095 -24 -2 C-15.22740253 -5.19003544 -8.09048298 -4.51251361 0 0 Z M-19 14 C-20.39935013 16.79870027 -20.25265405 18.90498792 -20 22 C-19 24 -19 24 -17 25 C-14.04279372 25.66680368 -14.04279372 25.66680368 -11 25 C-8.34115399 23.00979883 -8.34115399 23.00979883 -7 20 C-7.40847192 16.77443477 -7.40847192 16.77443477 -9 14 C-13.02503018 11.31664655 -14.99965466 11.5997928 -19 14 Z " fill="#000000" transform="translate(262,245)"/>
</svg>
